<svg xmlns="http://www.w3.org/2000/svg" width="1600" height="1007" preserveAspectRatio="xMidYMid meet" version="1.0" viewBox="0 0 16000 10070"><g id="layer101" fill="#000" stroke="none"><path d="M4080 8325 l-1465 -1465 -1172 0 -1173 0 0 -1760 0 -1760 1172 0 1173 0 1467 -1467 1468 -1468 0 4693 c0 2580 -1 4692 -3 4692 -1 0 -661 -659 -1467 -1465z"/><path d="M6144 8668 c8 -13 155 -266 326 -563 553 -955 846 -1461 1355 -2340 1178 -2033 2559 -4419 2838 -4902 166 -287 304 -523 307 -523 3 0 138 231 302 513 163 281 632 1092 1043 1802 411 710 781 1349 823 1420 122 211 1213 2096 1630 2815 212 366 409 707 439 758 415 717 568 982 585 1010 l20 32 -4841 0 -4841 0 14 -22z m5266 -1738 l0 -440 -440 0 -440 0 0 440 0 440 440 0 440 0 0 -440z m0 -2200 l0 -880 -440 0 -440 0 0 880 0 880 440 0 440 0 0 -880z"/></g></svg>